<?xml version="1.0" encoding="UTF-8" standalone="no"?>
<!-- Created with Inkscape (http://www.inkscape.org/) -->

<svg
   xmlns:dc="http://purl.org/dc/elements/1.1/"
   xmlns:cc="http://creativecommons.org/ns#"
   xmlns:rdf="http://www.w3.org/1999/02/22-rdf-syntax-ns#"
   xmlns:svg="http://www.w3.org/2000/svg"
   xmlns="http://www.w3.org/2000/svg"
   xmlns:sodipodi="http://sodipodi.sourceforge.net/DTD/sodipodi-0.dtd"
   xmlns:inkscape="http://www.inkscape.org/namespaces/inkscape"
   width="330.55292mm"
   height="471.62131mm"
   viewBox="0 0 1171.2505 1671.0991"
   id="svg14978"
   version="1.1"
   inkscape:version="0.91 r13725"
   sodipodi:docname="sombra-molino.svg">
  <defs
     id="defs14980" />
  <sodipodi:namedview
     id="base"
     pagecolor="#ffffff"
     bordercolor="#666666"
     borderopacity="1.0"
     inkscape:pageopacity="0.0"
     inkscape:pageshadow="2"
     inkscape:zoom="0.35"
     inkscape:cx="1746.3395"
     inkscape:cy="741.26384"
     inkscape:document-units="px"
     inkscape:current-layer="layer1"
     showgrid="false"
     fit-margin-top="0"
     fit-margin-left="0"
     fit-margin-right="0"
     fit-margin-bottom="0"
     inkscape:window-width="1920"
     inkscape:window-height="1016"
     inkscape:window-x="0"
     inkscape:window-y="27"
     inkscape:window-maximized="1" />
  <metadata
     id="metadata14983">
    <rdf:RDF>
      <cc:Work
         rdf:about="">
        <dc:format>image/svg+xml</dc:format>
        <dc:type
           rdf:resource="http://purl.org/dc/dcmitype/StillImage" />
        <dc:title></dc:title>
      </cc:Work>
    </rdf:RDF>
  </metadata>
  <g
     inkscape:label="Layer 1"
     inkscape:groupmode="layer"
     id="layer1"
     transform="translate(1874.1967,968.90163)">
    <path
       style="display:inline;opacity:0.98999999;fill:#008000;fill-opacity:0.18519712;stroke:#a793ac;stroke-width:2.85714293"
       d="m -1113.5908,692.10177 -6.5141,-8.9595 -178.5714,1.9834 c -175.0444,1.9441 -286.8251,5.1703 -310.4417,8.9597 -9.9757,1.6008 -12.343,1.0214 -14.8324,-3.6301 -4.6515,-8.6916 -10.8716,-237.6492 -17.3141,-637.322001 -1.2735,-79.00329 -2.8764,-144.20332 -3.5621,-144.88895 -0.6856,-0.68563 -14.6894,1.16212 -31.1196,4.10615 -33.5932,6.0194 -84.8871,11.56791 -106.9406,11.56791 -14.726,0 -21.5038,-3.428 -21.5038,-10.87594 0,-6.01283 33.9471,-40.101849 106.4286,-106.873649 l 65,-59.87966 0,-49.32571 c 0,-27.12914 -0.8153,-58.97069 -1.8118,-70.75894 l -1.8118,-21.43323 -74.6168,1.2276 -74.6168,1.22763 -29.2215,-42.644 c -44.0207,-64.24072 -55.5113,-84.11806 -57.1788,-98.91218 -2.5195,-22.35251 -0.3094,-22.15094 120.6861,11.0068 121.3577,33.25703 122.6727,33.545 160.351,35.11392 36.6674,1.52686 72.5061,-0.97469 72.5061,-5.06089 0,-1.34625 -11.8929,-9.1422 -26.4286,-17.32434 -47.9773,-27.00634 -80.6152,-55.93357 -105.03,-93.089 -28.914,-44.00254 -35.4652,-73.35543 -33.6538,-150.78833 1.1656,-49.82972 1.5189,-52.39852 10.2414,-74.46722 16.2065,-41.0042 55.763,-94.3752 73.9929,-99.8338 10.0301,-3.0033 23.8929,11.9803 89.2702,96.4873 33.0324,42.6977 63.1154,81.41044 66.8512,86.02826 l 6.7925,8.39604 2.0787,-26.57219 c 2.5697,-32.84851 7.4796,-52.18751 19.1025,-75.23961 13.4961,-26.7673 28.4873,-47.4739 47.1539,-65.1311 45.0178,-42.5835 83.8903,-57.7453 158.3088,-61.7468 31.5415,-1.696 33.6755,-1.4614 39.475,4.3381 4.0921,4.092 6.1298,9.6941 6.1273,16.8452 -0.01,14.5518 -10.8313,57.5636 -30.0249,119.2857 -17.7573,57.10361 -55.5817,180.53128 -62.2411,203.10374 l -4.2873,14.53225 27.5642,-6.66383 c 105.8616,-25.59277 229.9282,-22.63094 324.70711,7.75169 35.50129,11.3804 93.27379,40.57737 134.88229,68.16663 67.3202,44.63771 87.1726,74.90066 52.9655,80.74026 -10.4892,1.79062 -83.4445,4.02788 -324.9907,9.96617 l -82.8571,2.037 28.5714,6.53505 c 96.1535,21.99283 144.01501,45.81789 190.39881,94.77889 36.37299,38.39403 63.16999,88.94937 71.43329,134.76649 5.0071,27.76228 5.03,124.373699 0.032,133.571409 -8.6219,15.86586 -12.9447,12.94389 -153.22579,-103.571409 -52.97471,-44 -97.69151,-80.4982 -99.37061,-81.10712 -2.1361,-0.77463 -2.4841,13.31657 -1.1587,46.92172 3.1983,81.09397 5.3087,714.05709 2.7176,815.06149 -2.0175,78.6473 -3.1688,95.6219 -6.6338,97.8134 -7.0569,4.4632 -10.8919,3.1138 -17.6784,-6.2204 l 0,0 z m -408.5227,-41.473 15.1342,-1.688 -0.8485,-148.0998 -0.8485,-148.0996 12.8571,-13.1763 c 7.0715,-7.247 22.4753,-19.1964 34.2308,-26.5543 21.2112,-13.2765 21.5889,-13.3857 49.7418,-14.3744 32.5421,-1.1428 57.3501,2.9263 75.9322,12.4549 15.2171,7.8031 38.4771,30.812 42.8076,42.3455 4.2247,11.252 8.007,61.3696 11.4645,151.9102 1.6202,42.4286 3.7446,92.406 4.721,111.061 l 1.7753,33.9181 78.1197,-1.1839 c 42.9659,-0.6512 78.7245,-1.7887 79.4636,-2.5278 1.9074,-1.9074 -3.3479,-575.934201 -6.8387,-746.9817 -1.6036,-78.57142 -4.1902,-152.49545 -5.7482,-164.27559 -3.4104,-25.78763 -11.8124,-39.35306 -44.2468,-71.43869 l -21.6615,-21.42857 14.7145,31.42857 c 20.2863,43.32949 35.782,91.43697 41.0714,127.50954 5.0866,34.68889 5.9922,131.230309 1.6201,172.715939 -3.4016,32.2770204 -16.9087,72.3946 -41.6705,123.7657 -20.6547,42.850501 -35.243,67.981101 -47.6967,82.165101 -6.4738,7.3733 -10.6468,9.558 -18.2567,9.558 -8.8656,0 -10.4039,-1.2299 -15.189,-12.1429 -2.9284,-6.6785 -34.9092,-104.071401 -71.0685,-216.428531 -73.3531,-227.928879 -87.4404,-268.571419 -93.0907,-268.571419 -1.4597,0 0.2892,-5.08426 -90.1473,262.065219 l -79.5269,234.922431 -1.7118,160.7919 c -0.9416,88.4355 -2.4654,193.4294 -3.3863,233.3197 l -1.6744,72.5279 32.4115,-1.9001 c 17.8263,-1.0451 39.2219,-2.6597 47.5457,-3.5881 z m 300.5653,-522.629 c 83.0739,-128.23916065 92.7555,-289.35669 25.9124,-431.22424 -7.4041,-15.71428 -15.5465,-30.27743 -18.0944,-32.36257 -3.8748,-3.17103 -10.7027,-2.81123 -41.7429,2.19966 -20.4107,3.29494 -45.2313,9.00497 -55.1568,12.68897 -12.9476,4.80566 -26.819,7.17146 -49.0957,8.3734 -17.0771,0.9214 -31.6173,2.24337 -32.3117,2.93769 -2.9421,2.94211 146.6071,464.73429 150.502,464.73429 1.2493,0 10.2435,-12.3062 19.9871,-27.3472 z m -309.8075,-249.41852 67.6931,-200.94783 -6.7926,-6.67637 -6.7925,-6.67637 -48.5715,74.54331 c -26.7142,40.9988 -60.4325,91.79674 -74.9294,112.88426 -25.5115,37.10977 -26.2151,38.55894 -21.9106,45.12845 4.795,7.318169 9.8466,48.707369 15.336,125.653109 3.2444,45.47796 5.0661,60.24756 7.1711,58.14246 0.6068,-0.6067 31.5651,-91.52972 68.7964,-202.051019 z m 680.4431,-24.38889 c -1.0001,-23.61866 -3.7064,-45.47328 -7.3386,-59.26374 -25.11829,-95.36634 -96.73969,-171.77843 -187.9551,-200.5272 -31.757,-10.009 -68.1118,-14.42643 -102.47,-12.45103 -29.1155,1.674 -58.1231,6.54574 -62.3395,10.46974 -2.4359,2.26697 270.46741,239.85972 339.2627,295.36606 21.8745,17.649049 22.9379,15.934879 20.8405,-33.59383 z m -692.985,-189.39031 c 19.914,-18.01357 36.9068,-34.575 37.7618,-36.8032 0.8551,-2.22817 -1.0112,-10.03726 -4.1473,-17.35349 l -5.702,-13.30223 -39.0979,1.96217 c -25.6202,1.28575 -39.8575,3.15772 -41.3018,5.43046 -1.2122,1.9076 -2.2237,27.04692 -2.2477,55.86517 l -0.044,52.39686 9.2857,-7.72191 c 5.1071,-4.24706 25.5789,-22.46029 45.4929,-40.47383 z m -103.3501,-86.54526 c 32.2143,-3.45249 71.1063,-7.76954 86.4269,-9.59351 l 27.8554,-3.31632 -86.4269,-25.53223 c -161.8987,-47.82811 -227.8554,-66.71634 -227.8554,-65.25171 0,4.4658 71.6691,101.68671 77.7163,105.42408 11.9568,7.38972 41.0239,6.97843 122.2837,-1.73031 z m 476.3377,-20.78851 c 7.3234,-3.24398 6.2858,-3.58843 -13.2037,-4.38355 -22.1116,-0.90208 -24.1903,-0.156 -27.1754,9.75463 -1.8085,6.00437 -1.6585,6.02503 15.3023,2.10669 9.4208,-2.17643 20.7054,-5.54143 25.0768,-7.47777 z m 300.8051,-30.81975 141.4286,-0.13543 -17.1429,-15.69528 c -51.8508,-47.47243 -136.53039,-90.51074 -219.41619,-111.518 -54.41971,-13.7926 -157.43201,-15.45152 -217.72661,-3.50629 -29.2068,5.78629 -98.5714,27.02115 -98.5714,30.17603 0,0.96209 7.4884,9.57274 16.641,19.13477 20.0394,20.93575 29.9051,37.35992 36.187,60.24266 2.5883,9.42857 5.3003,18.95786 6.0266,21.1762 1.1202,3.42157 17.2332,3.74723 106.2329,2.14706 57.7019,-1.03743 168.55531,-1.9472 246.341,-2.02169 z m -616.1535,-60.08328 c 18.7006,-29.32806 56.5198,-54.13095 93.0164,-61.00277 17.8612,-3.36303 18.8232,-3.94969 18.3135,-11.1682 -0.6761,-9.57629 0.4745,-9.52063 11.9779,0.57942 6.1771,5.42358 14.0406,8.88792 23.2343,10.23612 7.6434,1.12088 19.5898,4.53186 26.5476,7.57997 6.9577,3.04811 13.5615,4.54903 14.675,3.33531 1.8794,-2.04845 97.9619,-295.21636 111.0764,-338.91746 3.2298,-10.7624 5.0437,-20.9085 4.0311,-22.547 -2.447,-3.9594 -56.5975,-0.5962 -80.3003,4.9873 -62.9337,14.8248 -125.1761,75.5845 -144.6684,141.2223 -3.2931,11.0891 -4.6071,27.08171 -4.6071,56.07247 0,37.00321 0.7539,43.00793 8.6008,68.49968 4.7304,15.36757 7.8419,28.69991 6.9144,29.62743 -3.1728,3.17283 -19.9926,-18.40606 -106.6809,-136.86568 -47.7236,-65.2143 -87.9937,-119.8572 -89.4893,-121.4286 -4.8584,-5.1051 -32.5392,28.9067 -47.9619,58.9314 -19.3016,37.5763 -25.6688,63.3554 -25.6688,103.92574 0,39.60925 6.4706,67.23454 24.0921,102.85714 19.5737,39.56903 49.7443,72.23006 88.2521,95.53686 9.5367,5.77205 52.3246,25.28551 56.2272,25.64245 0.7857,0.0717 6.3738,-7.62488 12.4179,-17.10388 z"
       id="path4659"
       inkscape:connector-curvature="0" />
  </g>
</svg>
